<svg version="1.2" xmlns="http://www.w3.org/2000/svg" viewBox="0 0 1604 686" width="1604" height="686">
	<title>emtlogo_new6-svg</title>
	<style>
		.s0 { fill: #006bb1 } 
		.s1 { fill: #007bb3 } 
		.s2 { fill: #09b7e1 } 
		.s3 { fill: #3f3f41 } 
		.s4 { fill: #515151 } 
		.s5 { opacity: .8;fill: none;stroke: #000000;stroke-width: 5.3 } 
	</style>
	<path id="Layer" fill-rule="evenodd" class="s0" d="m117.8 425.6v33h-117.7v-204.5h113.2v32.9h-72.8v49.5h68.6v32.2h-68.6v56.9zm29.7-105.6c10.1-5.8 29-12.5 52.9-12.5 47.4 0 60.1 29.3 60.1 61.7v54.3c0 13 0.6 26.1 2.2 35.1h-36.5l-2.4-15.4h-0.8c-8.5 11.7-23.4 18.4-40.4 18.4-28.1 0-45.7-20.5-45.7-44.5 0-38 34.8-55.8 83.2-55.8 0-14.7-5.3-25.8-27.4-25.8-13.8 0-27.6 4.2-37.4 10.1zm73.6 66.5c-22.1 0-44.7 5-44.7 26.6 0 14.1 9.1 20.2 19.2 20.2 9.5 0 25.5-6.7 25.5-25.5zm74.2 36.4c7.9 4.5 23.1 9.8 35.6 9.8 14.1 0 21-5.8 21-14.9 0-9-5.1-13.8-21.8-20.7-28.5-11.2-38.8-26.9-38.8-43.1 0-26.6 21.8-46.8 55.8-46.8 15.7 0 29 3.7 37.7 8.2l-7.7 27.7c-6.6-3.5-17.2-7.7-28.7-7.7-12.2 0-18.8 6.1-18.8 14.1 0 8.2 5.5 12.5 23.1 19.7 25.8 10.3 37.7 24.7 37.7 45.2 0 28.2-22 46.8-60.1 46.8-16.7 0-32.9-4-43-9.8zm152.6-26.6c1 25.2 19.6 35.3 41.4 35.3 15.2 0 26.9-2.6 37.3-6.1l5.8 27.2c-12.5 5.3-30.3 8.5-49.2 8.5-47 0-73.9-28.8-73.9-74.8 0-42.5 25.3-79.3 69.9-79.3 37 0 61.2 25.6 61.2 73.5 0 5.8-0.3 11.4-1.1 15.7zm55.1-27.4c0.2-15.5-6.2-34.4-26.1-34.4-19.4 0-27.6 19.7-28.7 34.4zm259.4-115l12 204.6h-38.5l-4-79.5c-1.1-26.9-2.4-59.9-2.2-80.6h-0.7c-6.2 24.4-13.6 51.6-20.8 74.4l-25.8 82.8h-30.5l-23.2-81.4c-6.9-23.2-13.3-50.8-18.3-75.8h-0.8c-0.5 25.8-1.9 56.1-3.2 81.4l-4 78.7h-36.9l14.1-204.6h49.9l22.6 76.9c6.9 24.8 13 48.7 17.6 72.1h0.8c5-22.9 11.1-47.6 18.3-72.1l23.9-76.9zm129.5 56.4h42.3l-34.6 103c-17 47.9-29.8 73.9-47 90.7-14.7 13.8-30.4 19.2-39.4 20.7l-10.1-33.2c6.4-1.9 14.1-6.1 21.3-10.9 13.3-9.3 20.2-24.5 20.2-27.4 0-1.6-0.6-3.7-1.6-6.7l-51.3-136.2h44.4l22.3 77.4c2.4 9.1 5.3 19.5 7.2 27.7h0.8c1.8-8 4.2-18.3 6.4-27.7zm191.1-56.4v34.1h-52.1v170.5h-40.4v-170.5h-51.9v-34.1zm58 82.3c7.2-19.2 23.7-29 37.7-29 3.8 0 6.4 0.2 9.1 0.8v37.5q-4.4-0.8-10.4-0.8c-18.3 0-32.4 11.9-32.4 37.2v76.6h-40.4v-101.9c0-18.3-0.6-33-1.1-46.3h34.8l1.6 25.9zm89.5-45.3c-12 0-21.7-9.4-21.7-21 0-11.6 9.7-21 21.7-21 12 0 21.7 9.4 21.7 21 0 11.6-9.7 21-21.7 21zm-20.1 19.4h40.4v148.2h-40.4zm113 20.2h0.5c9.9-15.1 25.6-23.4 45.2-23.4 33.3 0 58 30.4 58 75.8 0 54.6-31.9 78.5-62.8 78.5-16.7 0-29.5-7.4-36.1-17.3h-0.5v73.7h-40.5v-159.1c0-19.1-0.5-34.8-1-48.4h35.3zm4.3 68.1c0 21.6 13.3 31.9 27.1 31.9 20.5 0 31.1-19.6 31.1-46.2 0-26.4-10.4-45.5-30.3-45.5-15.7 0-27.9 14.3-27.9 32.2z"/>
	<path id="Layer" fill-rule="evenodd" class="s1" d="m261.9 329.6c111.4-218.7 415.8-51.6 584.6-197.4-168 170.8-501.4 26.6-584.6 197.4z"/>
	<path id="Layer" fill-rule="evenodd" class="s2" d="m655.6 0.5l395.1 31.7c19.4 1.3 16.2 4.8 6.6 13.6l-192.7 183.5c-10.9 11.7-13.3 8.3-26.1-5.3l-75.5-83c-10.1-10.1-11.7-12.2 5.6-18.4l187.4-58.8-210.8 36.8c-15.9 3.1-13.8 5.5-25-9.9l-70.4-78.2c-8.5-9.3-8-14.1 5.8-12z"/>
	<path id="Layer" fill-rule="evenodd" class="s1" d="m769.4 136.2l20.5 21.3c9.8 10.4 7.1 10.9-4 17.5l-65.2 29.6c-7.7 4.5-12.4 0.8-7.1-7.7l41.2-64.4c3.7-8 8-3.7 14.6 3.7z"/>
	<path id="Layer" fill-rule="evenodd" class="s3" d="m1373.6 515c-1-1-1.5-2.1-1.5-3.7 0-1.3 0.2-2.9 1-4.3 0.5-1.3 1.6-2.1 3.5-2.1 1.6 0 2.6 0.5 4 1.6 1.3 1.1 1.8 2.4 1.8 3.7 0 1.9-0.2 3.2-0.8 4.6-0.5 1.3-1.8 1.8-4 1.8-1.3 0-2.6-0.2-4-1.6zm37.5 3.5c-1.8-0.8-3.2-1.6-4.5-2.9-2.4-2.2-4-4.8-5-8-1.1-3-1.6-6.4-1.6-9.6 0-2.7 0.2-5.1 0.8-7.5 0.5-2.3 1.3-4.7 2.1-7.1 0.8-2.2 1.8-4.6 3.2-6.4 1-1.9 2.6-3.7 4-5.1 1.8-1.8 4-3.4 6.3-4.5 2.4-1.1 5.1-1.6 7.8-1.6 3.1 0 5.8 0.8 7.7 2.4 2.1 1.6 2.9 4 2.9 7.4 0 1.4-0.3 3.2-0.5 5.1-0.3 1.9-1.1 3.5-2.4 4.5-1.1 0.8-2.2 1.4-3.5 1.4-0.8 0-1.3-0.6-1.3-1.4 0-0.8 0.5-2.1 1.3-3.4 0.8-1.4 1.1-3 1.1-5.1 0-1.3-0.3-2.4-0.6-3.4-0.2-1.1-1-1.6-2.6-1.6-1.3 0-2.4 0.2-3.5 0.8-1 0.5-1.8 1.3-2.9 2.1-1.1 1.3-2.1 2.6-3.2 4.5-1.1 1.9-2.1 4-2.9 6.1-0.8 2.2-1.6 4.5-2.1 6.9q-0.8 4-0.8 7.2c0 2.4 0.2 4.3 0.8 6.1 0.5 1.9 1.6 3.2 2.9 4.6 1.6 1.8 3.7 2.6 6.6 2.6 3 0 5.6-0.5 8.3-1.6 2.4-1 5-2.1 7.1-4 2.2-1.8 4.3-3.7 6.2-5.8 1.8-2.1 3.4-4.3 4.7-6.7 0.3-0.5 0.8-1.3 1.6-2.1q0.3-0.3 0.6-0.5 0.1-0.5 0.2-1.1c1.4-4 3-7.7 5.1-10.9 2.1-3.5 4.8-6.1 7.7-8.2 2.9-2.2 6.4-3.2 9.8-3.2 1.9 0 3.8 0.5 5.4 1.3 1.3 1.1 2.6 2.1 3.7 3.7 1 1.6 1.8 3.2 2.4 5.3q0.8 2.8 0.8 6.4c0 5.3-0.6 10.1-2.2 14.4-1.6 4.2-3.4 7.7-5.8 10.6-2.1 3-4.8 5.1-7.7 6.7-2.7 1.3-5.6 2.1-8.3 2.1q-5.1 0-8.7-4c-2.4-2.8-3.7-6.7-3.8-12.4q-1 1.3-2.1 2.6c-2.6 2.9-5.3 5.3-8.5 7.4-2.9 2.2-6.1 3.8-9.8 5.1-3.7 1.3-7.5 1.8-11.2 1.8-2.4 0-4.2-0.2-5.6-1zm55.9-39.1c-1.6 1.6-3.2 3.7-4.6 6.1-1.3 2.7-2.4 5.3-3.2 8.2-0.8 3-1.3 5.6-1.3 8.3 0 3.7 0.5 6.4 1.9 8 1.3 1.8 2.9 2.6 4.8 2.6 1.6 0 3.2-0.8 5-1.8 1.9-1.1 3.5-2.7 5.1-4.8 1.6-2.2 2.9-4.8 3.7-7.7 0.8-3 1.3-6.7 1.3-10.4-0.3-2.9-0.8-5.6-1.8-7.7-1.1-2.2-3-3.2-5.1-3.2-2.1 0-4 0.8-5.8 2.4zm64.8 34.3c-0.5-1.1-1-2.9-1.3-4.8-0.3-2.1-0.5-4.3-0.8-6.6 0-2.4-0.3-4.8-0.3-7.2 0-2.4 0-14.1 0-16.3 0-0.2-0.2-0.8-0.2-1.6-0.3-0.8-0.6-1-1.4-1-0.8 0-1.8 0.8-3.4 2.4-1.4 1.3-2.9 3.4-4.8 5.8-1.9 2.7-3.7 5.3-5.6 8.3-1.9 2.9-3.7 5.8-5.3 8.5-1.6 2.6-2.9 5-4.3 7.4q-1.6 3.2-2.4 4.8c-0.5 1.1-1 1.9-1.8 2.7-0.8 1-1.6 1.3-2.9 1.3-0.8 0-1.6-0.3-1.9-0.8-0.5-0.5-0.8-1-0.8-1.8 0-1.6 0.3-3.8 0.5-6.4 0.3-3 0.8-5.9 1.4-9.3 0.5-3.5 1.3-7 2.1-10.7 0.8-3.4 1.6-7.2 2.4-10.4q1.2-5.1 2.4-8.7c0.8-2.7 1.3-4.3 1.8-5.4 1.1-1.6 2.4-2.9 4.6-3.7 2.1-0.8 3.9-1.3 5.8-1.3 1.1 0 1.6 0.3 2.1 0.8 0.6 0.5 0.8 1.3 0.8 2.1 0 1.1-0.2 1.9-0.5 3.2-0.5 1.3-0.8 2.4-1.3 3.7-0.6 1.1-1.1 2.4-1.6 3.5-0.6 1.3-1.1 2.4-1.4 3.2q-1.6 3.6-2.4 7.2c-0.5 2.6-1 5-1.5 7.4 0.8-1.3 2.1-3.2 3.7-5.6q2.8-3.6 5.6-7.2c2.1-2.6 3.9-4.5 6.1-6.3 1.8-1.9 4-2.7 5.6-2.7 1.3 0 2.1 0.3 2.9 1.1 0.5 0.5 1.3 1.6 1.6 2.6 0.5 1.1 0.5 2.4 0.8 3.5 0.2 1.3 0.2 2.4 0.2 3.2 0 2.6-0.2 5-0.2 7.4-0.3 2.7-0.3 5.1-0.3 7.5v2.1c0 1.1 0.3 1.9 0.3 2.9 0 1.1 0 1.9 0.2 2.7 0 0.8 0.3 1.1 0.6 1.1 0.2 0 0.8-0.3 1-1.1 0.3-0.8 0.6-1.1 0.8-1.3 1.6-2.7 3.2-5.1 5.1-7.5 1.8-2.7 3.4-5 5.3-7.4 1.1-1.9 2.7-4 4-5.9 1.3-2.1 2.9-4 4.5-5.6q2-2 4.8-4c1.9-1 4-1.8 5.8-1.8 1.4 0 2.7 0.2 3.8 1q1.6 0.8 2.4 2.4c0.5 1.1 1 2.2 1.3 3.5 0.2 1.3 0.5 2.4 0.5 3.7 0 5.1-0.3 9.6-0.8 14.4q-0.8 7.2-0.8 14.3v2.4c0 0.8 0 1.6 0.3 2.4 0.3 0.8 0.5 1.6 1 2.2 0.6 0.5 1.1 0.8 2.2 0.8 1.6 0 3.2-0.8 5-1.9q2.8-1.6 5.6-4c1.9-1.6 3.5-3.2 5.1-5.1 1.6-1.8 2.6-3.1 3.4-4.2 0.3-0.5 0.8-1.3 1.6-2.1 0.8-1.1 1.6-1.4 2.4-1.4q1.2 0 1.6 0.8c0 0.6 0.3 1.1 0.3 1.9 0 0.5-0.3 0.8-0.6 1.3-0.2 0.6-0.5 1.1-0.8 1.4-1.3 1.5-3.2 3.4-5.3 5.8-2.4 2.4-4.5 4.5-7.2 6.7-2.4 2.1-5 3.9-7.7 5.3-2.6 1.3-5 2.1-7.4 2.1-2.1 0-3.7-0.5-5.1-1.9-1-1-2.1-2.4-2.6-4.2-0.6-1.9-0.8-3.7-1.1-5.6-0.3-2.1-0.3-3.7-0.3-5.3 0-3.7 0-7.5 0.6-11.2 0.2-3.7 0.5-7.4 0.5-11.2v-1.6c0-0.5-0.3-1.3-0.3-1.8q-0.4-0.8-0.8-1.6c-0.2-0.6-0.7-0.8-1.3-0.8-0.8 0-2.1 0.8-3.7 2.4-1.6 1.3-3.2 3.4-5.1 5.8-1.8 2.7-3.7 5.3-5.5 8.3-1.9 2.9-3.8 5.8-5.4 8.5-1.8 2.9-3.1 5.3-4.5 7.7-1.3 2.4-2.4 4-2.9 5.1q-0.8 0.8-1.6 1.6c-0.5 0.2-1.3 0.5-2.1 0.5-1.1 0-1.9-0.8-1.1-2.4z"/>
	<g id="Layer">
		<path id="Layer" fill-rule="evenodd" class="s4" d="m41.3 574.3h-29.8l1.9-9.8h71.2l-1.9 9.8h-29.7l-15.2 80.6h-11.7zm82.4 80.4q0 0.1 0 0.3zm1.6-18.1h-0.2c-7.2 14.3-17.3 19.9-28 19.9-12.7 0-20.7-10.1-20.7-22.6 0-23.7 18.6-45.5 47.9-45.5 6.9 0 14.3 1.1 19.4 2.7l-6.4 32.4c-2.4 12.3-3.2 24-2.7 31.2h-10.9c0-4.1 0.6-10.8 1.6-18.1zm5.3-38.1c-1.6-0.5-4.5-1-9-1-17.5 0-33.2 15.4-33.2 34.5 0 7 2.9 14.9 12.7 14.9 10.1 0 22.4-11.9 25.8-30.6zm28.2 56.2v0.2zm18.3-95.7h11.7l-11.7 60.9h0.3c2.1-2.4 4.8-4.8 6.6-6.7l25-23.1h14.7l-30.6 26.3 21.5 38.3h-13l-17.6-31.9-9.3 7.7-4.5 24.2h-11.4zm101.3 92.1c-5 2.9-13.8 5.6-23.4 5.6-18.3 0-26.8-12.3-26.8-27.2 0-20.2 15.9-40.9 37.7-40.9 13.3 0 21 7.4 21 17.3 0 17.5-21 21.2-47 20.4-0.5 3.2 0 8.8 1.6 12 2.9 5.9 8.7 8.8 15.9 8.8 8.5 0 15.2-2.4 19.4-4.8zm-14.3-53.7c-12.3 0-20.8 11.4-23.1 20.2 19.9 0.3 34.5-1.6 34.5-11.7 0-5.6-4.8-8.5-11.4-8.5zm67.5 57.7l12.5-64.9h11.7l-12.5 64.9zm22.1-76.3c-4.2 0-7.5-3.4-7.5-7.5 0-4.1 3.3-7.4 7.5-7.4 4.1 0 7.4 3.3 7.4 7.4 0 4.1-3.3 7.5-7.4 7.5zm46.5-6.2l-3.2 17.6h16.5l-1.9 9h-16.5l-5.5 29.8c-0.8 3.8-1.4 7.2-1.4 11.2 0 4 2.1 6.7 6.7 6.7 2.1 0 4.2-0.3 5.5-0.6l-0.5 9.1c-1.8 0.8-5.6 1.3-9 1.3-10.7 0-14.6-6.7-14.6-13.3 0-4.3 0.5-8.3 1.6-12.8l6.1-31.4h-9.9l1.9-9h9.8l2.7-14.9zm109.8 40.2h-36.4l-6.2 32.4h41l-1.9 9.9h-52.3l17.2-90.5h50.3l-1.9 9.9h-38.5l-5.3 28.4h36.4zm65.1 42.3c0-4 0.5-10.9 1.6-18.3h-0.3c-7.1 14.3-17.2 19.9-27.9 19.9-12.7 0-20.7-10.1-20.7-22.6 0-23.7 18.6-45.5 47.8-45.5 6.9 0 14.4 1.1 19.4 2.7l-6.3 32.7c-2.4 12.2-3.2 23.9-2.7 31.1zm6.9-56.4c-1.6-0.5-4.5-1-9-1-17.6 0-33.3 15.4-33.3 34.5 0 7 3 14.9 12.8 14.9 10.1 0 22.3-11.9 25.8-30.6zm28.7 44.7c3.5 2.2 9.6 4.3 15.2 4.3 7.7 0 13-4.8 13-10.4 0-4.8-2.1-8-9.9-11.7q-12.7-6.4-12.7-16.7c0-11.5 10.4-20.3 24.7-20.3 6.4 0 12 1.9 14.6 3.5l-3.2 8.8c-2.4-1.4-6.9-3.2-12.5-3.2-6.9 0-11.9 4.2-11.9 9.6 0 4.7 3.2 7.4 9.8 10.9 8 4 13 9.5 13 17 0 13.6-11.7 21.5-26 21.5-7.7 0-14.1-2.4-17.6-4.8zm71.8-53.2l8 34.4c1.9 7.9 2.9 13 3.7 17.3h0.3c1.6-3.8 3.7-8 7.2-15.7l17.5-36.2h12.5l-25.3 48.1c-7.1 13.9-13.8 25-22.5 34.3-8.3 8.6-17.6 12-21.8 12.8l-2.4-10.1c2.6-0.8 7.9-2.7 12.5-6.1 4.5-3.5 9.3-8.5 13.2-15.2 0.6-1 0.6-1.6 0.3-2.6l-15.4-61z"/>
	</g>
	<path id="Layer" class="s5" d="m1600.1 637.9l-820.3 8"/>
</svg>